<?xml version="1.0" encoding="UTF-8" standalone="no"?>
<svg
   version="1.1"
   preserveAspectRatio="none"
   x="0px"
   y="0px"
   width="580"
   height="178.5"
   viewBox="0 0 580 178.5"
   id="svg1"
   sodipodi:docname="Main Logo (white).svg"
   inkscape:version="1.4.3 (0d15f75042, 2025-12-25)"
   xmlns:inkscape="http://www.inkscape.org/namespaces/inkscape"
   xmlns:sodipodi="http://sodipodi.sourceforge.net/DTD/sodipodi-0.dtd"
   xmlns:xlink="http://www.w3.org/1999/xlink"
   xmlns="http://www.w3.org/2000/svg"
   xmlns:svg="http://www.w3.org/2000/svg">
  <sodipodi:namedview
     id="namedview1"
     pagecolor="#ffffff"
     bordercolor="#000000"
     borderopacity="0.25"
     inkscape:showpageshadow="2"
     inkscape:pageopacity="0.0"
     inkscape:pagecheckerboard="0"
     inkscape:deskcolor="#d1d1d1"
     inkscape:zoom="1.6333333"
     inkscape:cx="290.20408"
     inkscape:cy="89.387755"
     inkscape:window-width="1920"
     inkscape:window-height="998"
     inkscape:window-x="0"
     inkscape:window-y="31"
     inkscape:window-maximized="1"
     inkscape:current-layer="svg1" />
  <defs
     id="defs1">
    <g
       id="Layer0_0_FILL">
      <path
         fill="#ffffff"
         stroke="none"
         d="m 256.2,302.35 h -2.3 v 5.1 h -1.45 v 2.15 h 1.45 v 11.9 h 2.3 v -11.9 h 2.6 v -2.15 h -2.6 v -5.1 m 7.55,19.15 v -14.05 h -2.35 v 14.05 h 2.35 m 0.55,-19.4 q 0,-0.75 -0.55,-1.2 -0.45,-0.55 -1.15,-0.55 -0.75,0 -1.2,0.55 -0.55,0.45 -0.55,1.2 0,0.7 0.55,1.15 0.45,0.55 1.2,0.55 0.7,0 1.15,-0.55 0.55,-0.45 0.55,-1.15 m 14.25,5.9 q -1.6,-1 -3.8,-1 -2,0 -3.6,1 -1.75,1.05 -2.75,2.65 -0.9,1.7 -0.9,3.75 0,2.2 0.9,3.9 1,1.6 2.75,2.5 1.6,1.15 3.6,1.15 2.2,0 3.8,-1.15 1.7,-0.9 2.75,-2.5 0.85,-1.7 0.85,-3.9 0,-2.05 -0.85,-3.75 -1.05,-1.6 -2.75,-2.65 m -8.15,9 q -0.55,-1.15 -0.55,-2.6 0,-1.45 0.55,-2.6 0.75,-1.15 1.75,-1.9 1.15,-0.7 2.6,-0.7 1.6,0 2.75,0.7 1.05,0.75 1.75,1.9 0.6,1.15 0.6,2.6 0,1.45 -0.6,2.6 -0.7,1.3 -1.75,1.9 -1.15,0.7 -2.75,0.7 -1.45,0 -2.6,-0.7 -1,-0.6 -1.75,-1.9 m 17.55,-7.95 v -1.6 h -2.45 v 14.05 h 2.45 v -6.65 q 0,-1.3 0.15,-2.6 0.15,-1.35 1,-2.2 0.6,-0.85 2.35,-0.85 1.45,0 2,0.7 0.6,0.6 0.75,1.45 0.3,1 0.15,2.2 v 7.95 h 2.45 v -8.4 q 0,-1.75 -0.45,-3.05 -0.4,-1.45 -1.3,-2.15 -1.15,-0.9 -3.05,-0.9 -1.3,0 -2.3,0.6 -1,0.55 -1.75,1.45 m 22.5,-6.85 v 5.1 H 309 v 2.3 h 1.45 v 11.9 h 2.45 v -11.9 h 2.45 v -2.3 h -2.45 v -5.1 h -2.45 m -125.9,19.3 h 2.9 L 177.3,297.75 166.9,321.5 h 2.75 l 2.6,-6.35 h 9.7 l 2.6,6.35 m -7.35,-17.85 3.75,9 h -7.7 l 3.95,-9 m 22.15,4.25 q -1,-0.9 -2.9,-0.9 -1.3,0 -2.3,0.6 -1,0.55 -1.75,1.45 v -1.6 h -2.45 v 14.05 h 2.45 v -6.65 q 0,-1.3 0.15,-2.6 0.15,-1.35 0.85,-2.2 0.75,-0.85 2.5,-0.85 1.45,0 2,0.7 0.6,0.6 0.75,1.45 0.3,1 0.15,2.2 v 7.95 h 2.45 v -8.4 q 0,-1.75 -0.45,-3.05 -0.4,-1.45 -1.45,-2.15 m 9.15,-0.45 h -2.45 v 14.05 h 2.45 v -14.05 m 0.45,-5.35 q 0,-0.75 -0.45,-1.2 -0.45,-0.55 -1.15,-0.55 -0.75,0 -1.3,0.55 -0.45,0.45 -0.45,1.2 0,0.7 0.45,1.15 0.55,0.55 1.3,0.55 0.7,0 1.15,-0.55 0.45,-0.45 0.45,-1.15 m 15.95,5.5 q -1.05,0.55 -1.75,1.75 -0.6,-1.05 -1.6,-1.75 -1,-0.6 -2.2,-0.6 -1.15,0 -2,0.6 -0.9,0.4 -1.45,1.3 v -1.45 h -2.45 v 14.05 h 2.45 v -7.25 q 0,-1.15 0.15,-2.3 0.15,-1.05 0.85,-1.9 0.6,-0.85 2.05,-0.85 1.15,0 1.75,0.7 0.4,0.75 0.55,1.6 0.15,1 0.15,2.05 v 7.95 h 2.45 v -7.55 q 0,-1 0.15,-2.15 0.15,-1 0.9,-1.75 0.7,-0.85 2,-0.85 1.3,0 1.75,0.7 0.6,0.6 0.75,1.45 0.1,1 0.1,2.05 v 8.1 h 2.35 v -8.55 q 0.15,-1.6 -0.3,-2.9 -0.45,-1.3 -1.45,-2.15 -0.85,-0.9 -2.6,-0.9 -1.45,0 -2.6,0.6 M 242,307 q -2.2,0 -3.65,1 -1.45,1.05 -2.3,2.8 -0.75,1.7 -0.85,3.6 0.1,2.05 0.85,3.75 0.85,1.6 2.3,2.65 1.45,1.15 3.65,1.15 1.45,0 2.6,-0.6 1.3,-0.7 2.2,-1.75 h 0.1 v 1.9 h 2.35 v -14.05 h -2.35 v 2 h -0.1 q -0.9,-1.15 -2.2,-1.85 -1.15,-0.6 -2.6,-0.6 m -3.8,9.85 q -0.55,-1.15 -0.55,-2.6 0,-1.3 0.55,-2.45 0.6,-1.15 1.6,-1.9 1.05,-0.7 2.5,-0.7 1.45,0 2.45,0.7 1,0.75 1.6,1.9 0.55,1.15 0.55,2.45 0,1.45 -0.4,2.75 -0.6,1.15 -1.6,1.9 -1.15,0.7 -2.6,0.7 -1.45,0 -2.5,-0.7 -1.15,-0.75 -1.6,-2.05 m -81.6,-113.8 v 43.65 q 0,12.15 3.75,21 4.35,8.15 11.75,11.9 7.25,3.9 16.55,3.9 5.05,-0.15 10,-2.3 4.65,-2.9 8.1,-6.55 0.9,-0.85 1.15,-0.55 l 0.15,1.75 q 0,2 1.6,3.45 1,1.45 3.5,1.45 h 18.1 q 2.5,0 3.8,-1.45 1.3,-1.3 1.3,-3.45 v -72.8 q 0,-2.45 -1.3,-3.5 -1.3,-1.3 -3.8,-1.3 h -18.1 q -2.5,0 -3.5,1.3 -1.6,1.05 -1.6,3.5 v 36.55 q 0,5.8 -1.45,9.4 -2,3.8 -4.5,5.8 -2.45,1.6 -5.8,1.6 -3.05,0.15 -5.95,-1.6 -2.45,-1.3 -4.35,-5.2 -1.55,-3.35 -1.55,-10.3 v -36.4 q 0,-1.75 -1.35,-3.65 -1.3,-1.3 -3.75,-1.3 h -18.1 l 0.1,0.3 q -2.3,0 -3.75,1.3 -1,0.9 -1,3.5 m -42.5,-5.5 q -4.95,-2.05 -11.15,-2.05 -10.6,0 -18.45,5.35 -4.6,3.05 -7.8,7.25 L 53.35,195.05 30,209.3 l 6.65,8.1 31.65,12.9 -0.45,8.85 q 0,13.5 4.5,23.5 4.35,9.85 12.15,15.2 8.45,5.5 18.45,5.5 6.2,0 11.15,-2 5.35,-2.2 8.55,-5.65 l 1,-0.6 q 0.45,0 0.45,1.15 v 25.95 q 0,2.2 1,3.65 1.35,1.45 3.8,1.45 H 147 q 2.5,0 4.1,-1.45 1,-1.45 1,-3.65 v -99.3 q 0,-2.05 -1,-3.65 -1.35,-1.3 -4.1,-1.3 h -18.1 q -2.05,0 -3.5,1.2 -0.7,1.3 -1.3,3.3 0,1.3 -0.45,1.3 l -1,-0.7 q -3.45,-3.5 -8.55,-5.5 m 8.1,32.75 q 1.9,3.5 1.9,9 0,5.8 -1.9,9.25 -2.6,4.1 -5.2,6.1 -3.35,1.9 -6.8,1.9 -3.8,0 -7.1,-1.9 -2.9,-2 -5.1,-6.1 -2,-3.15 -2,-9.25 0,-5.65 2,-9 2.05,-4.05 5.1,-6.25 3.75,-2.15 7.1,-2.15 3.05,0 6.8,2.15 2.9,2.05 5.2,6.25 m 388.6,77.85 q -1.45,-1.15 -3.75,-1.15 -2.15,0 -3.75,1.15 -1.45,0.9 -2.2,2.75 -0.85,1.6 -0.85,3.8 0,2 0.85,3.6 0.9,1.6 2.45,2.65 1.45,1 3.5,1 2.3,0 3.9,-1.15 1.6,-1.05 2.75,-2.9 l -2,-1.2 q -0.75,1.35 -1.9,2.05 -1,0.85 -2.45,0.85 -1.45,0 -2.35,-0.55 -1.15,-0.6 -1.7,-1.75 -0.6,-1 -0.6,-2.3 h 11 q 0.15,-2.2 -0.55,-3.95 -0.75,-1.85 -2.35,-2.9 m -0.25,2.9 q 0.55,0.9 0.7,1.9 h -8.4 q 0.15,-1 0.7,-1.9 0.6,-0.85 1.6,-1.3 0.9,-0.55 1.9,-0.55 1.15,0 2.05,0.55 0.85,0.45 1.45,1.3 m 19.4,-3.6 h -2.45 v 2 h -0.15 q -0.85,-1.15 -2.05,-1.85 -1.3,-0.6 -2.75,-0.6 -2,0 -3.6,1 -1.45,1.05 -2.2,2.8 -0.85,1.7 -1,3.6 0.15,2.05 1,3.75 0.75,1.6 2.35,2.65 1.45,1.15 3.45,1.15 1.45,0 2.75,-0.6 1.2,-0.7 2.05,-1.75 h 0.15 v 1.9 h 2.45 v -14.05 m -2.3,6.8 q 0,1.45 -0.6,2.75 -0.55,1.15 -1.6,1.9 -1,0.7 -2.6,0.7 -1.45,0 -2.45,-0.7 -1,-0.75 -1.6,-2.05 -0.45,-1.15 -0.45,-2.6 0,-1.3 0.6,-2.45 0.55,-1.15 1.6,-1.9 0.85,-0.7 2.3,-0.7 1.45,0 2.6,0.7 1.05,0.75 1.6,1.9 0.6,1.15 0.6,2.45 M 539.8,307 q -1.15,0 -1.85,0.6 -0.6,0.55 -1.3,1.3 v -1.45 h -2.35 v 14.05 h 2.35 v -7.1 q 0,-0.6 0,-1.6 0.15,-0.85 0.4,-1.6 0.15,-0.85 0.9,-1.45 0.4,-0.55 1.45,-0.55 0.4,0 0.7,0.25 0.3,0.15 0.75,0.45 l 1.15,-2.15 q -0.6,-0.3 -1,-0.6 -0.6,-0.15 -1.2,-0.15 m -42.75,-10.15 h -2.45 v 24.65 h 2.45 v -24.65 m -83.65,10.6 h -2.75 l 6.5,12.75 -4.65,9.15 h 2.75 l 10.45,-21.9 h -2.75 l -4.65,10.15 -4.9,-10.15 m 20.7,0.45 q -1,-0.9 -2.3,-0.9 -1,0 -2.05,0.6 -0.85,0.4 -1.6,1.3 -0.4,1 -0.4,2.15 0,1.3 0.55,2.05 0.6,0.7 1.6,1.15 1.05,0.6 1.9,0.9 0.85,0.4 1.6,0.85 0.55,0.6 0.55,1.6 0,1 -0.55,1.45 -0.75,0.55 -1.6,0.55 -1.15,0 -1.9,-0.55 -0.55,-0.6 -1,-1.6 l -2.2,0.85 q 0.6,1.75 1.9,2.65 1.3,1 3.2,1 1.3,0 2.3,-0.75 1.05,-0.55 1.75,-1.6 0.6,-1 0.6,-2.3 0,-1.15 -0.45,-1.9 -0.45,-0.85 -1.15,-1.3 -0.9,-0.4 -1.6,-0.85 -0.85,-0.3 -1.6,-0.6 -0.7,-0.3 -1.15,-0.85 -0.45,-0.45 -0.45,-1 0,-0.6 0.45,-1.05 0.55,-0.4 1.15,-0.4 0.75,0 1.15,0.4 0.6,0.45 0.9,1.05 l 1.85,-1.05 q -0.4,-1.3 -1.45,-1.85 m 8.45,-0.45 v -5.1 h -2.5 v 5.1 h -1.45 v 2.3 h 1.45 v 11.75 h 2.5 V 309.75 H 445 v -2.3 h -2.45 m 17.4,0 h -2.35 v 2 h -0.15 q -0.85,-1.15 -2,-1.85 -1.3,-0.6 -2.75,-0.6 -2.2,0 -3.65,1 -1.45,1.05 -2.3,2.8 -0.75,1.7 -0.9,3.75 0.15,2.05 0.9,3.6 0.85,1.6 2.3,2.8 1.45,1 3.65,1 1.45,0 2.75,-0.6 1.15,-0.7 2,-1.75 h 0.15 v 1.9 h 2.35 v -14.05 m -11.05,4.35 q 0.6,-1 1.6,-1.9 1,-0.55 2.45,-0.55 1.45,0 2.5,0.55 1,0.75 1.6,1.9 0.55,1.15 0.55,2.45 0,1.45 -0.45,2.75 -0.55,1.15 -1.55,1.9 -1.2,0.7 -2.65,0.7 -1.45,0 -2.45,-0.7 -1,-0.75 -1.6,-2.05 -0.55,-1.15 -0.55,-2.6 0,-1.3 0.55,-2.45 m 33.2,0 q 0.75,-1.15 1.75,-1.9 1.15,-0.7 2.6,-0.7 1.45,0 2.6,0.7 1.05,0.6 1.75,1.6 h 0.15 v -3.05 q -1,-0.7 -2.15,-1 -1.2,-0.45 -2.2,-0.45 -2.15,0 -3.75,1 -1.75,1.05 -2.75,2.65 -1.05,1.7 -1.05,3.75 0,2.2 1.05,3.9 0.85,1.6 2.6,2.65 1.75,1 3.9,1 1.15,0 2.35,-0.45 1,-0.3 2,-1 v -3.35 q -0.85,1.3 -1.9,1.9 -1.15,0.55 -2.75,0.55 -1.45,0 -2.45,-0.7 -1.15,-0.75 -1.75,-1.9 -0.55,-1.15 -0.55,-2.6 0,-1.45 0.55,-2.6 m -155,-3.9 q -1.15,-0.9 -3.05,-0.9 -1.3,0 -2.3,0.6 -1,0.55 -1.75,1.6 v -12.35 h -2.45 V 321.5 H 320 v -6.65 q 0,-1.3 0.15,-2.6 0.15,-1.2 1,-2.05 0.6,-0.85 2.35,-0.85 1.45,0 2,0.55 0.6,0.6 0.75,1.45 0.3,1 0.15,2.35 v 7.8 h 2.45 v -8.4 q 0,-1.6 -0.45,-2.9 -0.4,-1.45 -1.3,-2.3 m 19,13.6 v -14.05 h -2.3 v 2 h -0.15 q -0.9,-1.15 -2.05,-1.85 -1.3,-0.6 -2.75,-0.6 -2.15,0 -3.6,1 -1.45,1.05 -2.35,2.8 -0.7,1.7 -0.85,3.75 0.15,2.05 0.85,3.6 0.9,1.6 2.35,2.8 1.45,1 3.6,1 1.45,0 2.75,-0.6 1.15,-0.7 2.05,-1.75 h 0.15 v 1.9 h 2.3 m -2.9,-9.7 q 0.6,1.15 0.6,2.45 0,1.45 -0.45,2.75 -0.6,1.15 -1.6,1.9 -1.15,0.7 -2.6,0.7 -1.45,0 -2.45,-0.7 -1.05,-0.75 -1.6,-2.05 -0.6,-1.15 -0.6,-2.6 0,-1.3 0.6,-2.45 0.55,-1 1.6,-1.9 1,-0.55 2.45,-0.55 1.45,0 2.45,0.55 1,0.75 1.6,1.9 m 7.4,-4.35 h -1.45 v 2.3 h 1.45 v 11.75 h 2.45 v -11.75 h 2.5 v -2.3 h -2.5 v -5.1 h -2.45 v 5.1 m 10.15,1.3 0.45,-9.85 h -2.75 l 0.55,9.85 h 1.75 M 370.3,307 q -1.15,0 -2.15,0.6 -0.9,0.4 -1.45,1.3 -0.6,0.85 -0.6,2.15 0.15,1.3 0.6,2.05 0.7,0.7 1.6,1.15 1,0.6 1.85,0.9 1.05,0.4 1.6,0.85 0.75,0.6 0.75,1.6 0,0.85 -0.75,1.45 -0.55,0.55 -1.6,0.55 -1.15,0 -1.85,-0.55 -0.6,-0.6 -1.05,-1.6 l -2,0.85 q 0.55,1.6 1.9,2.65 1.15,1 3,1 1.35,0 2.35,-0.75 1.15,-0.55 1.75,-1.6 0.7,-1 0.7,-2.3 0,-1.15 -0.45,-1.9 -0.55,-0.85 -1.3,-1.3 -0.7,-0.55 -1.6,-0.85 -0.7,-0.3 -1.55,-0.6 -0.75,-0.3 -1.2,-0.85 -0.4,-0.45 -0.4,-1 0,-0.75 0.4,-1.05 0.6,-0.55 1.3,-0.55 0.6,0 1.05,0.55 0.55,0.3 0.85,0.9 l 2.05,-1.05 q -0.45,-1.15 -1.6,-1.85 -0.9,-0.75 -2.2,-0.75 m 33.8,0.45 h -2.3 v 14.05 h 2.3 v -7.1 q 0,-0.6 0.15,-1.6 0,-0.85 0.3,-1.6 0.15,-0.85 0.85,-1.45 0.45,-0.55 1.45,-0.55 0.45,0 0.75,0.25 0.4,0.15 0.7,0.45 l 1.15,-2.15 q -0.55,-0.3 -1,-0.6 -0.6,-0.15 -1.15,-0.15 -1.15,0 -1.9,0.6 -0.55,0.55 -1.15,1.3 h -0.15 v -1.45 m -6.1,1 q -1,-0.7 -2.15,-1 -1.05,-0.45 -2.2,-0.45 -2.15,0 -3.75,1 -1.75,1.05 -2.75,2.65 -1.05,1.7 -1.05,3.75 0,2.2 1.05,3.9 1,1.6 2.6,2.65 1.75,1 3.9,1 1.15,0 2.35,-0.45 1,-0.3 2.15,-1 v -3.35 H 398 q -0.7,1.3 -1.85,1.9 -1.2,0.55 -2.8,0.55 -1.45,0 -2.45,-0.7 -1.15,-0.75 -1.75,-1.9 -0.55,-1.15 -0.55,-2.6 0,-1.45 0.55,-2.6 0.75,-1.15 1.9,-1.9 1,-0.7 2.45,-0.7 1.45,0 2.65,0.7 1,0.6 1.7,1.6 H 398 v -3.05 M 324.35,275.7 v -72.8 q 0,-2.05 -1.15,-3.65 -1.3,-1.3 -3.65,-1.3 h -18.1 q -2.45,0 -3.65,1.2 -1.45,1.45 -1.45,3.45 0,1.15 -0.25,1.15 l -0.9,-0.7 q -4.65,-3.8 -9,-5.35 -5.05,-1.9 -10.85,-1.9 -10.75,0 -18.4,5.35 -8.3,5.5 -12.2,14.95 h -0.3 q -4.5,10.15 -4.5,23.65 0,13.3 4.5,23.3 4.35,10.05 12.5,14.95 7.65,5.35 18.4,5.35 6.25,0 10.85,-2 5.1,-2.05 9,-5.35 l 0.9,-0.6 q 0.25,0 0.25,1.15 0,2.35 1.45,2.75 1.2,1.15 3.65,1.15 h 18.1 q 2.35,0 3.65,-1.3 1.15,-1.15 1.15,-3.45 m -29.7,-45.4 q 1.7,3.9 1.7,9.45 0,4.9 -1.7,8.8 -2.05,3.8 -5.55,6.25 -3.6,2.35 -6.65,2.35 -3.65,0 -7.1,-2.35 -3.05,-2.45 -5.1,-6.25 -2.15,-3.9 -2.15,-8.8 0,-6.1 2.15,-9.45 2.05,-3.6 5.1,-5.95 3.35,-2 7.1,-2 3.5,0 6.65,2 2.75,1.9 5.55,5.95 m 172.1,66.55 h -2.45 v 24.65 h 2.45 V 296.85 M 406.4,215.2 q 0.75,-1.55 -0.55,-3.75 -4.5,-7.7 -12.05,-11.75 -7.25,-3.9 -16.25,-3.9 -6.5,0 -11.15,2.45 -5.05,1.9 -8.4,5.95 l -1,0.75 -0.45,-1.2 v -0.7 q 0,-2.45 -1.15,-3.5 -1.3,-1.3 -3.5,-1.3 h -18.1 q -2.5,0 -3.8,1.3 -1.15,1.05 -1.15,3.5 V 276 q 0,2.3 1.15,3.3 1.3,1.45 3.8,1.45 h 18.1 q 2.2,0 3.5,-1.45 1.15,-1.3 1.15,-3.3 v -38.9 q 0,-4.6 2.15,-7.5 2.05,-3.8 5.1,-5.25 2.9,-1.9 6.5,-1.9 2.75,0 5.25,1.45 2.9,1.05 4.75,3.5 1.6,1.75 3.35,2.2 1.75,0.4 3.5,-0.9 l 16.5,-10.15 q 2.2,-1.6 2.75,-3.35 m 37.3,-32.45 h -18.15 q -2.3,0 -3.75,1.15 -1.15,1 -1.15,3.65 v 8.4 q 0,2.3 -2.2,2.3 h -2.9 q -2.15,0 -3.6,1.3 -1.05,0.9 -1.05,3.5 v 14.65 q 0,2.45 1.05,3.45 1.45,1.3 3.6,1.3 h 2.9 q 2.2,0 2.2,2.05 v 23.65 q -0.3,12.6 3.05,19.7 3.3,7.1 11.7,10 8,2.5 23.65,2.9 2.05,0 3.65,-1.15 1.3,-1.3 1.3,-3.75 v -16.1 q 0,-2.5 -1.15,-3.65 -1.45,-1.3 -3.95,-1.3 -4.2,-0.15 -7.55,-1.75 -2.9,-2 -3,-6.35 v -22.2 q 0,-2.05 2.15,-2.05 h 5.8 q 2.6,0 3.5,-1.3 1.3,-1.3 1.3,-3.45 v -14.65 q 0,-2.45 -1.3,-3.5 -0.9,-1.3 -3.5,-1.3 h -5.8 q -2.15,0 -2.15,-2.3 v -8.4 h 0.1 q 0,-1.45 -1.3,-3.65 -1.6,-1.15 -3.45,-1.15 m 76.7,15.2 -11.75,-39.55 -19.15,-7.55 -12.75,17.55 19.7,29.55 h -23.2 q -2.6,0 -3.75,1.3 -1.3,1.2 -1.3,3.65 V 221 q 0,2.65 1.3,3.95 1.6,1.15 3.75,1.15 h 31.9 l 1.3,0.15 -0.7,0.85 -33.35,22.65 q -2.3,1.6 -3.2,3.3 -1,2.05 -1,4.35 v 18.45 q 0,2.45 1.3,3.45 1.15,1.45 3.75,1.45 h 69.6 q 2.35,0 3.65,-1.45 1.3,-1.45 1.3,-3.45 V 257.4 q 0,-1.85 -1.3,-3.6 -1.45,-1.15 -3.65,-1.15 H 513.7 q -2.6,0 -0.55,-1.3 L 544.05,229 q 1.7,-1.15 2.9,-3.65 0.85,-2.6 0.85,-4.35 v -1.15 l 46.55,5.4 15.65,-14.8 -19.7,-20.45 -9.45,-20.15 -22.2,7.4 -22.3,20.7 z"
         id="path1" />
    </g>
  </defs>
  <g
     id="g1"
     transform="translate(-30,-150.85)">
    <use
       xlink:href="#Layer0_0_FILL"
       id="use1" />
  </g>
</svg>
